<svg width="22" height="23" viewBox="0 0 22 23" fill="none" xmlns="http://www.w3.org/2000/svg">
<g id="Facebook - Original" clip-path="url(#clip0_22_1129)">
<path id="Vector" d="M22 11.2666C22 5.19147 17.0751 0.266602 11 0.266602C4.92486 0.266602 0 5.19147 0 11.2666C0 16.7569 4.02252 21.3078 9.28125 22.133V14.4463H6.48828V11.2666H9.28125V8.84317C9.28125 6.08629 10.9235 4.56348 13.4361 4.56348C14.6392 4.56348 15.8984 4.77832 15.8984 4.77832V7.48535H14.5114C13.145 7.48535 12.7188 8.33334 12.7188 9.2041V11.2666H15.7695L15.2818 14.4463H12.7188V22.133C17.9775 21.3078 22 16.7569 22 11.2666Z" fill="#1877F2"/>
<path id="Vector_2" d="M15.2818 14.4463L15.7695 11.2666H12.7188V9.2041C12.7188 8.3342 13.145 7.48535 14.5114 7.48535H15.8984V4.77832C15.8984 4.77832 14.6397 4.56348 13.4361 4.56348C10.9235 4.56348 9.28125 6.08629 9.28125 8.84316V11.2666H6.48828V14.4463H9.28125V22.133C10.4202 22.3111 11.5798 22.3111 12.7188 22.133V14.4463H15.2818Z" fill="white"/>
</g>
<defs>
<clipPath id="clip0_22_1129">
<rect width="22" height="22" fill="white" transform="translate(0 0.266602)"/>
</clipPath>
</defs>
</svg>
