<svg width="22" height="23" viewBox="0 0 22 23" fill="none" xmlns="http://www.w3.org/2000/svg">
<g id="Instagram - Original" clip-path="url(#clip0_22_1131)">
<g id="Group">
<path id="Vector" d="M11 2.24746C13.9391 2.24746 14.2871 2.26035 15.443 2.31191C16.5172 2.35918 17.0973 2.53965 17.484 2.69004C17.9953 2.88769 18.3648 3.12832 18.7473 3.51074C19.134 3.89746 19.3703 4.26269 19.568 4.77402C19.7183 5.16074 19.8988 5.74512 19.9461 6.81504C19.9976 7.97519 20.0105 8.32324 20.0105 11.258C20.0105 14.1971 19.9976 14.5451 19.9461 15.701C19.8988 16.7752 19.7183 17.3553 19.568 17.742C19.3703 18.2533 19.1297 18.6228 18.7473 19.0053C18.3605 19.392 17.9953 19.6283 17.484 19.826C17.0973 19.9764 16.5129 20.1568 15.443 20.2041C14.2828 20.2557 13.9348 20.2685 11 20.2685C8.06093 20.2685 7.71289 20.2557 6.55703 20.2041C5.48281 20.1568 4.90273 19.9764 4.51601 19.826C4.00469 19.6283 3.63515 19.3877 3.25273 19.0053C2.86601 18.6186 2.62969 18.2533 2.43203 17.742C2.28164 17.3553 2.10117 16.7709 2.05391 15.701C2.00234 14.5408 1.98945 14.1928 1.98945 11.258C1.98945 8.31894 2.00234 7.9709 2.05391 6.81504C2.10117 5.74082 2.28164 5.16074 2.43203 4.77402C2.62969 4.26269 2.87031 3.89316 3.25273 3.51074C3.63945 3.12402 4.00469 2.88769 4.51601 2.69004C4.90273 2.53965 5.48711 2.35918 6.55703 2.31191C7.71289 2.26035 8.06093 2.24746 11 2.24746ZM11 0.266602C8.01367 0.266602 7.63984 0.279492 6.46679 0.331055C5.29804 0.382617 4.49453 0.57168 3.79844 0.842383C3.07226 1.12598 2.45781 1.4998 1.84766 2.11426C1.2332 2.72441 0.859375 3.33887 0.575781 4.06074C0.305078 4.76113 0.116016 5.56035 0.0644531 6.7291C0.0128906 7.90644 0 8.28027 0 11.2666C0 14.2529 0.0128906 14.6268 0.0644531 15.7998C0.116016 16.9686 0.305078 17.7721 0.575781 18.4682C0.859375 19.1943 1.2332 19.8088 1.84766 20.4189C2.45781 21.0291 3.07226 21.4072 3.79414 21.6865C4.49453 21.9572 5.29375 22.1463 6.4625 22.1978C7.63554 22.2494 8.00937 22.2623 10.9957 22.2623C13.982 22.2623 14.3559 22.2494 15.5289 22.1978C16.6976 22.1463 17.5012 21.9572 18.1973 21.6865C18.9191 21.4072 19.5336 21.0291 20.1437 20.4189C20.7539 19.8088 21.132 19.1943 21.4113 18.4725C21.682 17.7721 21.8711 16.9728 21.9226 15.8041C21.9742 14.6311 21.9871 14.2572 21.9871 11.2709C21.9871 8.28457 21.9742 7.91074 21.9226 6.73769C21.8711 5.56894 21.682 4.76543 21.4113 4.06933C21.1406 3.33887 20.7668 2.72441 20.1523 2.11426C19.5422 1.5041 18.9277 1.12598 18.2059 0.84668C17.5055 0.575976 16.7062 0.386914 15.5375 0.335352C14.3601 0.279492 13.9863 0.266602 11 0.266602Z" fill="#EC3397"/>
<path id="Vector_2" d="M11 5.61621C7.88047 5.61621 5.34961 8.14707 5.34961 11.2666C5.34961 14.3861 7.88047 16.917 11 16.917C14.1195 16.917 16.6504 14.3861 16.6504 11.2666C16.6504 8.14707 14.1195 5.61621 11 5.61621ZM11 14.9318C8.97617 14.9318 7.33477 13.2904 7.33477 11.2666C7.33477 9.24277 8.97617 7.60137 11 7.60137C13.0238 7.60137 14.6652 9.24277 14.6652 11.2666C14.6652 13.2904 13.0238 14.9318 11 14.9318Z" fill="#EC3397"/>
<path id="Vector_3" d="M18.193 5.39287C18.193 6.12334 17.6 6.71202 16.8738 6.71202C16.1434 6.71202 15.5547 6.11905 15.5547 5.39287C15.5547 4.6624 16.1477 4.07373 16.8738 4.07373C17.6 4.07373 18.193 4.6667 18.193 5.39287Z" fill="#EC3397"/>
</g>
</g>
<defs>
<clipPath id="clip0_22_1131">
<rect width="22" height="22" fill="white" transform="translate(0 0.266602)"/>
</clipPath>
</defs>
</svg>
