<svg width="22" height="23" viewBox="0 0 22 23" fill="none" xmlns="http://www.w3.org/2000/svg">
<g id="LinkedIn - Original" clip-path="url(#clip0_22_1132)">
<path id="Vector" d="M20.376 0.266602H1.62403C1.19331 0.266602 0.780231 0.437704 0.475667 0.742269C0.171103 1.04683 0 1.45991 0 1.89063V20.6426C0 21.0733 0.171103 21.4864 0.475667 21.7909C0.780231 22.0955 1.19331 22.2666 1.62403 22.2666H20.376C20.8067 22.2666 21.2198 22.0955 21.5243 21.7909C21.8289 21.4864 22 21.0733 22 20.6426V1.89063C22 1.45991 21.8289 1.04683 21.5243 0.742269C21.2198 0.437704 20.8067 0.266602 20.376 0.266602ZM6.55722 19.0079H3.24958V8.50132H6.55722V19.0079ZM4.90111 7.04535C4.52592 7.04324 4.15976 6.93003 3.84884 6.72002C3.53792 6.51 3.29619 6.21259 3.15414 5.86532C3.01209 5.51804 2.97609 5.13648 3.0507 4.76877C3.1253 4.40106 3.30715 4.06369 3.57331 3.79923C3.83947 3.53478 4.178 3.3551 4.54618 3.28286C4.91436 3.21062 5.29569 3.24906 5.64204 3.39334C5.98839 3.53761 6.28424 3.78125 6.49226 4.09351C6.70027 4.40577 6.81113 4.77265 6.81083 5.14785C6.81437 5.39905 6.7673 5.64839 6.67243 5.88101C6.57755 6.11362 6.43682 6.32476 6.25861 6.50183C6.0804 6.6789 5.86836 6.81828 5.63514 6.91166C5.40192 7.00504 5.15228 7.0505 4.90111 7.04535ZM18.7489 19.017H15.4428V13.2772C15.4428 11.5844 14.7232 11.0619 13.7943 11.0619C12.8135 11.0619 11.851 11.8013 11.851 13.3199V19.017H8.54333V8.50896H11.7242V9.96494H11.7669C12.0863 9.31869 13.2046 8.2141 14.9111 8.2141C16.7567 8.2141 18.7504 9.30952 18.7504 12.5179L18.7489 19.017Z" fill="#0A66C2"/>
</g>
<defs>
<clipPath id="clip0_22_1132">
<rect width="22" height="22" fill="white" transform="translate(0 0.266602)"/>
</clipPath>
</defs>
</svg>
