<svg width="22" height="23" viewBox="0 0 22 23" fill="none" xmlns="http://www.w3.org/2000/svg">
<g id="Twitter - Original">
<path id="Vector" d="M6.91856 20.2048C15.2205 20.2048 19.7613 13.3267 19.7613 7.36204C19.7613 7.16668 19.7613 6.9722 19.7481 6.7786C20.6315 6.13964 21.394 5.34849 22 4.4422C21.1763 4.8074 20.3024 5.04679 19.4075 5.15236C20.3498 4.58832 21.0551 3.70108 21.3919 2.6558C20.5059 3.18161 19.5366 3.55214 18.5258 3.7514C17.8452 3.02776 16.9452 2.54859 15.9648 2.38803C14.9845 2.22746 13.9786 2.39447 13.1028 2.8632C12.227 3.33192 11.53 4.07624 11.1198 4.98097C10.7097 5.8857 10.6091 6.90039 10.8337 7.86804C9.03915 7.77802 7.28361 7.31165 5.681 6.4992C4.07839 5.68676 2.66453 4.54639 1.5312 3.15212C0.954001 4.14578 0.777216 5.32208 1.03684 6.44151C1.29647 7.56094 1.97298 8.53933 2.92864 9.17748C2.2103 9.15643 1.50759 8.96265 0.88 8.61252V8.66972C0.880285 9.71183 1.24103 10.7218 1.90105 11.5282C2.56107 12.3347 3.47972 12.888 4.5012 13.0944C3.83669 13.2756 3.13947 13.3021 2.46312 13.1718C2.75166 14.0686 3.31323 14.8528 4.0693 15.4148C4.82538 15.9768 5.73817 16.2885 6.68008 16.3064C5.74424 17.042 4.67254 17.5858 3.5263 17.9069C2.38006 18.2279 1.18178 18.3198 0 18.1772C2.06418 19.5018 4.46593 20.2045 6.91856 20.2012" fill="#1DA1F2"/>
</g>
</svg>
